<svg width="687" height="610" viewBox="0 0 687 610" fill="none" xmlns="http://www.w3.org/2000/svg">
<path d="M110.81 271.5C110.755 271.859 110.728 272.219 110.728 272.582C110.712 272.84 110.712 273.102 110.728 273.359C110.763 273.715 110.822 274.062 110.904 274.41C110.951 274.691 111.009 274.969 111.083 275.242V275.32L173.306 461.99V461.986C174.353 465.166 177.318 467.318 180.666 467.33H507.326C510.674 467.33 513.642 465.186 514.701 462.01L576.924 275.34V275.262V275.266C576.998 274.988 577.057 274.707 577.104 274.426C577.197 274.086 577.275 273.738 577.326 273.391C577.314 272.758 577.275 272.129 577.209 271.5C577.154 271.238 577.08 270.977 576.994 270.723C576.9 270.371 576.779 270.023 576.635 269.688C576.635 269.602 576.58 269.5 576.541 269.414L529.873 176.082H529.877C528.557 173.434 525.846 171.762 522.885 171.773H418.185C420.564 164.223 421.771 156.355 421.771 148.441V62.8864C421.771 58.5895 418.29 55.1052 413.993 55.1052C409.697 55.1052 406.216 58.5896 406.216 62.8864V101.976C401.794 96.0584 396.556 90.7964 390.661 86.3514V86.2186V23.9956C390.661 19.6987 387.177 16.2183 382.884 16.2183C378.587 16.2183 375.103 19.6988 375.103 23.9956V77.2026C367.696 73.9409 359.826 71.8667 351.771 71.0581V31.7731C351.771 27.4762 348.29 23.9958 343.993 23.9958C339.696 23.9958 336.216 27.4763 336.216 31.7731V71.0581C328.161 71.8667 320.29 73.9409 312.884 77.2026V8.44063C312.884 4.14373 309.4 0.66333 305.103 0.66333C300.81 0.66333 297.325 4.14383 297.325 8.44063V86.2176V86.3504C291.431 90.7957 286.192 96.0574 281.77 101.975V47.3274C281.77 43.0344 278.29 39.5501 273.993 39.5501C269.696 39.5501 266.216 43.0345 266.216 47.3274V140.663C266.263 141.191 266.368 141.714 266.536 142.218C266.372 144.273 266.216 146.331 266.216 148.441C266.216 156.355 267.423 164.222 269.802 171.773H165.102C162.156 171.773 159.461 173.437 158.141 176.074L111.473 269.406C111.434 269.492 111.418 269.585 111.379 269.679H111.383C111.238 270.015 111.117 270.363 111.024 270.714C110.938 270.972 110.863 271.234 110.805 271.499L110.81 271.5ZM501.72 451.77H186.27L129.235 280.66H558.755L501.72 451.77ZM343.99 86.22C360.494 86.22 376.318 92.7747 387.986 104.443C399.658 116.115 406.213 131.939 406.213 148.443C406.213 164.943 399.658 180.771 387.986 192.439C376.318 204.107 360.494 210.666 343.99 210.666C327.486 210.666 311.662 204.107 299.994 192.439C288.322 180.771 281.767 164.943 281.767 148.443C281.787 131.947 288.349 116.131 300.013 104.466C311.677 92.798 327.493 86.239 343.99 86.22ZM169.91 187.33H276.74C284.58 200.818 296.271 211.65 310.314 218.443H289.548C285.255 218.443 281.771 221.924 281.771 226.22C281.771 230.517 285.255 233.998 289.548 233.998H398.438C402.731 233.998 406.215 230.517 406.215 226.22C406.215 221.924 402.731 218.443 398.438 218.443H377.672C391.715 211.65 403.406 200.818 411.246 187.33H518.076L556.967 265.107H131.017L169.91 187.33Z" fill="#EEBC1D"/>
<path d="M338.45 427.67C339.915 429.162 341.915 430.002 344.005 430.002C346.095 430.002 348.094 429.162 349.559 427.67L401.918 374.275C409.649 366.314 413.977 355.654 413.977 344.556C413.977 333.458 409.649 322.794 401.918 314.837C394.215 306.9 383.621 302.431 372.563 302.446C361.891 302.426 351.637 306.59 344.004 314.051C336.219 306.473 325.746 302.301 314.887 302.446C304.028 302.591 293.668 307.044 286.09 314.829C278.36 322.79 274.031 333.45 274.031 344.548C274.031 355.646 278.359 366.306 286.09 374.267L338.45 427.67ZM297.227 325.73V325.726C302.016 320.789 308.602 318.003 315.481 318.003C322.356 318.003 328.942 320.789 333.731 325.726L338.493 330.578L338.489 330.582C341.59 333.566 346.497 333.566 349.598 330.582L354.359 325.73L354.356 325.726C359.227 320.941 365.778 318.257 372.606 318.257C379.434 318.257 385.989 320.941 390.856 325.726C395.75 330.773 398.484 337.523 398.484 344.554C398.484 351.581 395.75 358.331 390.856 363.378L344.004 411.12L297.192 363.382V363.378C292.297 358.331 289.559 351.581 289.559 344.554C289.559 337.523 292.297 330.773 297.192 325.726L297.227 325.73Z" fill="#EEBC1D"/>
<path d="M344 178C337.984 178 333.109 173.125 333.109 167.109C333.109 162.816 329.628 159.332 325.332 159.332C321.039 159.332 317.554 162.816 317.554 167.109C317.578 172.746 319.398 178.222 322.758 182.746C326.117 187.269 330.836 190.601 336.223 192.25V195.109C336.223 199.406 339.703 202.891 344 202.891C348.297 202.891 351.777 199.406 351.777 195.109V192.246V192.25C359.91 189.766 366.343 183.508 369.058 175.453C371.773 167.394 370.437 158.519 365.464 151.621C360.495 144.723 352.503 140.644 343.999 140.668C339.597 140.668 335.624 138.016 333.94 133.945C332.253 129.875 333.186 125.191 336.3 122.078C339.413 118.965 344.097 118.031 348.167 119.719C352.233 121.402 354.889 125.375 354.889 129.778C354.889 134.075 358.37 137.555 362.667 137.555C366.96 137.555 370.444 134.075 370.444 129.778C370.421 124.145 368.6 118.665 365.241 114.141C361.882 109.617 357.163 106.289 351.776 104.641V101.778C351.776 97.4806 348.295 94.0002 343.999 94.0002C339.702 94.0002 336.221 97.4807 336.221 101.778V104.641C328.089 107.125 321.655 113.379 318.94 121.438C316.225 129.497 317.561 138.368 322.534 145.266C327.503 152.168 335.495 156.246 343.999 156.223C350.015 156.223 354.89 161.098 354.89 167.11C354.89 173.125 350.015 178.001 343.999 178.001L344 178Z" fill="#EEBC1D"/>
<path d="M250.67 148.45C250.67 142.262 248.209 136.325 243.834 131.95C239.459 127.575 233.525 125.114 227.334 125.114C221.147 125.114 215.213 127.575 210.838 131.95C206.459 136.325 204.002 142.262 204.002 148.45C204.002 154.638 206.459 160.571 210.838 164.95C215.213 169.325 221.147 171.782 227.334 171.782C233.526 171.782 239.459 169.325 243.834 164.95C248.209 160.571 250.67 154.638 250.67 148.45ZM227.338 156.227H227.334C224.19 156.227 221.354 154.333 220.15 151.426C218.947 148.52 219.611 145.173 221.834 142.95C224.061 140.723 227.404 140.059 230.311 141.262C233.217 142.466 235.111 145.302 235.111 148.45C235.111 150.512 234.295 152.489 232.834 153.95C231.377 155.407 229.397 156.227 227.334 156.227H227.338Z" fill="#EEBC1D"/>
<path d="M445.11 101.78C445.11 107.967 447.571 113.905 451.946 118.28C456.321 122.655 462.258 125.112 468.446 125.112C474.634 125.112 480.567 122.655 484.946 118.28C489.321 113.905 491.778 107.968 491.778 101.78C491.778 95.592 489.321 89.659 484.946 85.28C480.567 80.905 474.634 78.448 468.446 78.448C462.258 78.448 456.321 80.905 451.946 85.28C447.571 89.6589 445.11 95.592 445.11 101.78ZM476.219 101.78H476.223C476.223 104.924 474.328 107.76 471.422 108.967C468.516 110.171 465.168 109.503 462.945 107.28C460.719 105.057 460.055 101.71 461.258 98.8034C462.461 95.8972 465.297 94.0026 468.445 94.0026C470.508 94.0026 472.485 94.8229 473.945 96.2799C475.402 97.7408 476.223 99.7174 476.223 101.78H476.219Z" fill="#EEBC1D"/>
<path d="M445.11 47.332C451.301 47.332 457.235 44.875 461.61 40.5C465.985 36.125 468.446 30.188 468.446 24C468.446 17.812 465.985 11.875 461.61 7.5C457.235 3.125 451.301 0.667999 445.11 0.667999C438.922 0.667999 432.989 3.125 428.614 7.5C424.235 11.875 421.778 17.812 421.778 24C421.778 30.188 424.235 36.125 428.614 40.5C432.989 44.875 438.923 47.332 445.11 47.332ZM445.11 16.223C448.258 16.223 451.094 18.1175 452.297 21.0238C453.501 23.9301 452.837 27.2738 450.61 29.5004C448.387 31.7231 445.044 32.391 442.133 31.1879C439.227 29.9809 437.333 27.1449 437.333 24.0004C437.333 19.7035 440.817 16.2231 445.11 16.2231V16.223Z" fill="#EEBC1D"/>
<path d="M235.11 47.332C241.301 47.332 247.235 44.875 251.61 40.5C255.985 36.125 258.446 30.188 258.446 24C258.446 17.812 255.985 11.875 251.61 7.5C247.235 3.125 241.301 0.667999 235.11 0.667999C228.923 0.667999 222.989 3.125 218.614 7.5C214.235 11.875 211.778 17.812 211.778 24C211.778 30.188 214.235 36.125 218.614 40.5C222.989 44.875 228.923 47.332 235.11 47.332ZM235.11 16.223C238.258 16.223 241.094 18.1175 242.298 21.0238C243.501 23.9301 242.837 27.2738 240.61 29.5004C238.387 31.7231 235.044 32.391 232.133 31.1879C229.227 29.9809 227.333 27.1449 227.333 24.0004C227.333 19.7035 230.817 16.2231 235.11 16.2231V16.223Z" fill="#EEBC1D"/>
<path d="M102.9 544.54C102.9 555.34 101.22 564.76 97.86 572.8C94.5 580.72 89.76 587.32 83.64 592.6C77.52 597.76 70.2 601.66 61.68 604.3C53.16 606.82 43.8 608.08 33.6 608.08C28.56 608.08 22.98 607.84 16.86 607.36C10.86 607 5.40001 606.22 0.480011 605.02V484.06C5.40001 482.86 10.86 482.08 16.86 481.72C22.98 481.24 28.56 481 33.6 481C43.8 481 53.16 482.32 61.68 484.96C70.2 487.48 77.52 491.38 83.64 496.66C89.76 501.82 94.5 508.42 97.86 516.46C101.22 524.38 102.9 533.74 102.9 544.54ZM35.04 592.78C51.6 592.78 63.96 588.58 72.12 580.18C80.28 571.66 84.36 559.78 84.36 544.54C84.36 529.3 80.28 517.48 72.12 509.08C63.96 500.56 51.6 496.3 35.04 496.3C30.12 496.3 26.28 496.36 23.52 496.48C20.88 496.6 19.02 496.72 17.94 496.84V592.24C19.02 592.36 20.88 592.48 23.52 592.6C26.28 592.72 30.12 592.78 35.04 592.78ZM210.34 560.2C210.34 567.64 209.26 574.36 207.1 580.36C204.94 586.36 201.88 591.52 197.92 595.84C194.08 600.16 189.46 603.52 184.06 605.92C178.66 608.2 172.78 609.34 166.42 609.34C160.06 609.34 154.18 608.2 148.78 605.92C143.38 603.52 138.7 600.16 134.74 595.84C130.9 591.52 127.9 586.36 125.74 580.36C123.58 574.36 122.5 567.64 122.5 560.2C122.5 552.88 123.58 546.22 125.74 540.22C127.9 534.1 130.9 528.88 134.74 524.56C138.7 520.24 143.38 516.94 148.78 514.66C154.18 512.26 160.06 511.06 166.42 511.06C172.78 511.06 178.66 512.26 184.06 514.66C189.46 516.94 194.08 520.24 197.92 524.56C201.88 528.88 204.94 534.1 207.1 540.22C209.26 546.22 210.34 552.88 210.34 560.2ZM192.88 560.2C192.88 549.64 190.48 541.3 185.68 535.18C181 528.94 174.58 525.82 166.42 525.82C158.26 525.82 151.78 528.94 146.98 535.18C142.3 541.3 139.96 549.64 139.96 560.2C139.96 570.76 142.3 579.16 146.98 585.4C151.78 591.52 158.26 594.58 166.42 594.58C174.58 594.58 181 591.52 185.68 585.4C190.48 579.16 192.88 570.76 192.88 560.2ZM352.772 545.62H370.232V603.94C368.792 604.42 366.692 604.96 363.932 605.56C361.292 606.16 358.172 606.76 354.572 607.36C351.092 607.96 347.252 608.44 343.052 608.8C338.852 609.28 334.592 609.52 330.272 609.52C321.512 609.52 313.532 608.08 306.332 605.2C299.132 602.32 292.952 598.12 287.792 592.6C282.632 587.08 278.612 580.3 275.732 572.26C272.972 564.22 271.592 554.98 271.592 544.54C271.592 534.1 273.152 524.86 276.272 516.82C279.512 508.66 283.832 501.82 289.232 496.3C294.632 490.78 300.932 486.58 308.132 483.7C315.452 480.82 323.252 479.38 331.532 479.38C337.172 479.38 342.152 479.74 346.472 480.46C350.912 481.18 354.692 482.02 357.812 482.98C360.932 483.94 363.452 484.9 365.372 485.86C367.412 486.82 368.792 487.54 369.512 488.02L363.932 502.6C360.452 500.32 355.832 498.46 350.072 497.02C344.312 495.46 338.432 494.68 332.432 494.68C326.072 494.68 320.252 495.82 314.972 498.1C309.812 500.38 305.372 503.68 301.652 508C298.052 512.32 295.232 517.6 293.192 523.84C291.152 529.96 290.132 536.86 290.132 544.54C290.132 551.98 290.972 558.76 292.652 564.88C294.452 571 297.092 576.28 300.572 580.72C304.172 585.04 308.552 588.4 313.712 590.8C318.992 593.2 325.172 594.4 332.252 594.4C337.292 594.4 341.552 594.16 345.032 593.68C348.632 593.08 351.212 592.54 352.772 592.06V545.62ZM479.11 560.2C479.11 567.64 478.03 574.36 475.87 580.36C473.71 586.36 470.65 591.52 466.69 595.84C462.85 600.16 458.23 603.52 452.83 605.92C447.43 608.2 441.55 609.34 435.19 609.34C428.83 609.34 422.95 608.2 417.55 605.92C412.15 603.52 407.47 600.16 403.51 595.84C399.67 591.52 396.67 586.36 394.51 580.36C392.35 574.36 391.27 567.64 391.27 560.2C391.27 552.88 392.35 546.22 394.51 540.22C396.67 534.1 399.67 528.88 403.51 524.56C407.47 520.24 412.15 516.94 417.55 514.66C422.95 512.26 428.83 511.06 435.19 511.06C441.55 511.06 447.43 512.26 452.83 514.66C458.23 516.94 462.85 520.24 466.69 524.56C470.65 528.88 473.71 534.1 475.87 540.22C478.03 546.22 479.11 552.88 479.11 560.2ZM461.65 560.2C461.65 549.64 459.25 541.3 454.45 535.18C449.77 528.94 443.35 525.82 435.19 525.82C427.03 525.82 420.55 528.94 415.75 535.18C411.07 541.3 408.73 549.64 408.73 560.2C408.73 570.76 411.07 579.16 415.75 585.4C420.55 591.52 427.03 594.58 435.19 594.58C443.35 594.58 449.77 591.52 454.45 585.4C459.25 579.16 461.65 570.76 461.65 560.2ZM585.282 560.2C585.282 567.64 584.202 574.36 582.042 580.36C579.882 586.36 576.822 591.52 572.862 595.84C569.022 600.16 564.402 603.52 559.002 605.92C553.602 608.2 547.722 609.34 541.362 609.34C535.002 609.34 529.122 608.2 523.722 605.92C518.322 603.52 513.642 600.16 509.682 595.84C505.842 591.52 502.842 586.36 500.682 580.36C498.522 574.36 497.442 567.64 497.442 560.2C497.442 552.88 498.522 546.22 500.682 540.22C502.842 534.1 505.842 528.88 509.682 524.56C513.642 520.24 518.322 516.94 523.722 514.66C529.122 512.26 535.002 511.06 541.362 511.06C547.722 511.06 553.602 512.26 559.002 514.66C564.402 516.94 569.022 520.24 572.862 524.56C576.822 528.88 579.882 534.1 582.042 540.22C584.202 546.22 585.282 552.88 585.282 560.2ZM567.822 560.2C567.822 549.64 565.422 541.3 560.622 535.18C555.942 528.94 549.522 525.82 541.362 525.82C533.202 525.82 526.722 528.94 521.922 535.18C517.242 541.3 514.902 549.64 514.902 560.2C514.902 570.76 517.242 579.16 521.922 585.4C526.722 591.52 533.202 594.58 541.362 594.58C549.522 594.58 555.942 591.52 560.622 585.4C565.422 579.16 567.822 570.76 567.822 560.2ZM669.314 533.2C667.274 531.52 664.334 529.9 660.494 528.34C656.654 526.78 652.454 526 647.894 526C643.094 526 638.954 526.9 635.474 528.7C632.114 530.38 629.354 532.78 627.194 535.9C625.034 538.9 623.474 542.5 622.514 546.7C621.554 550.9 621.074 555.4 621.074 560.2C621.074 571.12 623.774 579.58 629.174 585.58C634.574 591.46 641.774 594.4 650.774 594.4C655.334 594.4 659.114 594.22 662.114 593.86C665.234 593.38 667.634 592.9 669.314 592.42V533.2ZM669.314 470.2L686.054 467.32V604.3C682.214 605.38 677.294 606.46 671.294 607.54C665.294 608.62 658.394 609.16 650.594 609.16C643.394 609.16 636.914 608.02 631.154 605.74C625.394 603.46 620.474 600.22 616.394 596.02C612.314 591.82 609.134 586.72 606.854 580.72C604.694 574.6 603.614 567.76 603.614 560.2C603.614 553 604.514 546.4 606.314 540.4C608.234 534.4 610.994 529.24 614.594 524.92C618.194 520.6 622.574 517.24 627.734 514.84C633.014 512.44 639.014 511.24 645.734 511.24C651.134 511.24 655.874 511.96 659.954 513.4C664.154 514.84 667.274 516.22 669.314 517.54V470.2Z" fill="#EEBC1D"/>
</svg>
