<svg width="480" height="479" viewBox="0 0 480 479" fill="none" xmlns="http://www.w3.org/2000/svg">
<path d="M240 478.74C176.113 478.74 116.04 453.861 70.88 408.685C25.7 363.517 0.817993 303.455 0.817993 239.565C0.817993 107.675 108.118 0.38501 240.008 0.38501C371.898 0.38501 479.198 107.675 479.198 239.565C479.198 371.445 371.898 478.745 240.008 478.745L240 478.74ZM240 22.28C120.18 22.2839 22.7 119.76 22.7 239.57C22.7 297.609 45.305 352.18 86.345 393.22C127.392 434.243 181.962 456.845 240.005 456.845C359.825 456.845 457.305 359.372 457.305 239.555C457.305 119.745 359.821 22.265 240.005 22.265L240 22.28Z" fill="#EEBC1D"/>
<path d="M207.94 309.26C204.792 309.26 201.651 307.912 199.491 305.28C195.643 300.619 196.311 293.725 200.975 289.874L261.998 239.569L200.975 189.264C196.311 185.416 195.651 178.518 199.491 173.858C203.331 169.197 210.237 168.533 214.897 172.373L286.163 231.127C288.682 233.197 290.151 236.295 290.151 239.565C290.151 242.834 288.682 245.932 286.163 248.01L214.901 306.756C212.854 308.443 210.393 309.26 207.94 309.26L207.94 309.26Z" fill="#EEBC1D"/>
</svg>
