<svg width="480" height="479" viewBox="0 0 480 479" fill="none" xmlns="http://www.w3.org/2000/svg">
<path d="M240.016 478.74C303.903 478.74 363.976 453.861 409.136 408.685C454.316 363.517 479.198 303.455 479.198 239.565C479.198 107.675 371.898 0.38501 240.008 0.38501C108.118 0.38501 0.817993 107.675 0.817993 239.565C0.817993 371.445 108.118 478.745 240.008 478.745L240.016 478.74ZM240.016 22.28C359.836 22.2839 457.316 119.76 457.316 239.57C457.316 297.609 434.711 352.18 393.671 393.22C352.624 434.243 298.054 456.845 240.011 456.845C120.191 456.845 22.711 359.372 22.711 239.555C22.711 119.745 120.195 22.265 240.011 22.265L240.016 22.28Z" fill="#EEBC1D"/>
<path d="M272.076 309.26C275.224 309.26 278.365 307.912 280.525 305.28C284.373 300.619 283.705 293.725 279.041 289.874L218.018 239.569L279.041 189.264C283.705 185.416 284.365 178.518 280.525 173.858C276.685 169.197 269.779 168.533 265.119 172.373L193.853 231.127C191.334 233.197 189.865 236.295 189.865 239.565C189.865 242.834 191.334 245.932 193.853 248.01L265.115 306.756C267.162 308.443 269.623 309.26 272.076 309.26L272.076 309.26Z" fill="#EEBC1D"/>
</svg>
