<svg width="700" height="561" viewBox="0 0 700 561" fill="none" xmlns="http://www.w3.org/2000/svg">
<g clip-path="url(#clip0_2_2)">
<rect width="700" height="561" fill="white"/>
<path d="M350 7.52731C500.48 7.52731 622.47 129.517 622.47 279.997C622.47 430.477 500.48 552.467 350 552.467C199.52 552.467 77.53 430.477 77.53 279.997C77.53 129.517 199.52 7.52731 350 7.52731V7.52731ZM166.99 451.617V450.074C166.99 403.812 204.802 366 251.064 366H448.934C495.196 366 533.008 403.812 533.008 450.074V451.617C575.106 406.746 600.891 346.387 600.891 279.997C600.891 141.427 488.571 29.1073 350.001 29.1073C211.431 29.1073 99.111 141.427 99.111 279.997C99.111 346.384 124.892 406.747 166.994 451.617H166.99ZM511.43 472.07V450.078C511.43 415.73 483.285 387.586 448.938 387.586H251.068C216.72 387.586 188.576 415.731 188.576 450.078V472.07C232.209 508.773 288.525 530.89 350.006 530.89C411.486 530.89 467.796 508.773 511.436 472.07H511.43ZM350 100.35C412.027 100.35 462.32 150.639 462.32 212.67C462.32 274.701 412.031 324.99 350 324.99C287.969 324.99 237.68 274.701 237.68 212.67C237.68 150.639 287.969 100.35 350 100.35ZM350 121.932C299.883 121.932 259.266 162.549 259.266 212.666C259.266 262.783 299.883 303.4 350 303.4C400.117 303.4 440.734 262.783 440.734 212.666C440.734 162.549 400.117 121.932 350 121.932V121.932Z" fill="#EEBC1D"/>
</g>
<defs>
<clipPath id="clip0_2_2">
<rect width="700" height="561" fill="white"/>
</clipPath>
</defs>
</svg>
